<svg xmlns="http://www.w3.org/2000/svg" width="1200" height="760" viewBox="0 0 1200 760">
  <defs>
    <linearGradient id="bg" x1="0" y1="0" x2="1" y2="1">
      <stop offset="0" stop-color="#1a0b2e"/>
      <stop offset="0.55" stop-color="#290f3f"/>
      <stop offset="1" stop-color="#0f0a1a"/>
    </linearGradient>
    <radialGradient id="glow1" cx="25%" cy="30%" r="65%">
      <stop offset="0" stop-color="#ff5bd6" stop-opacity="0.55"/>
      <stop offset="1" stop-color="#ff5bd6" stop-opacity="0"/>
    </radialGradient>
    <radialGradient id="glow2" cx="80%" cy="75%" r="70%">
      <stop offset="0" stop-color="#6b7bff" stop-opacity="0.45"/>
      <stop offset="1" stop-color="#6b7bff" stop-opacity="0"/>
    </radialGradient>
  </defs>

  <rect width="1200" height="760" rx="28" fill="url(#bg)"/>
  <rect width="1200" height="760" rx="28" fill="url(#glow1)"/>
  <rect width="1200" height="760" rx="28" fill="url(#glow2)"/>

  <g opacity="0.18" fill="#ffffff">
    <circle cx="160" cy="640" r="6"/>
    <circle cx="220" cy="610" r="3"/>
    <circle cx="1040" cy="130" r="5"/>
    <circle cx="980" cy="170" r="2"/>
    <circle cx="920" cy="630" r="4"/>
  </g>

  <g font-family="ui-sans-serif, system-ui, -apple-system, Segoe UI, Roboto, Arial" fill="#ffffff">
    <text x="80" y="120" font-size="56" font-weight="700" opacity="0.95">Growth Hackers</text>
    <text x="80" y="170" font-size="22" font-weight="400" opacity="0.82">
      Placeholder preview  replace with a screenshot (PNG/JPG) anytime.
    </text>

    <g opacity="0.32">
      <rect x="80" y="230" width="1040" height="430" rx="22" fill="none" stroke="#ffffff" stroke-width="2"/>
      <path d="M120 590 C 240 520, 340 620, 460 560 S 700 520, 820 580 S 1000 640, 1080 540" fill="none" stroke="#ffffff" stroke-width="2"/>
      <circle cx="220" cy="430" r="9"/>
      <circle cx="320" cy="430" r="9"/>
      <circle cx="420" cy="430" r="9"/>
    </g>
  </g>
</svg>
